<svg width="128" height="27" viewBox="0 0 128 27" xmlns="http://www.w3.org/2000/svg"><g fill="none" fill-rule="evenodd"><path d="M26.6057143 13.6024935L26.6057143 13.6374935 26.6057143 13.6224935 26.6057143 13.6024935 26.6057143 13.6024935zM19.9775584 13.6160649L19.9775584 13.6070649 19.9775584 13.6270649 19.9775584 13.6160649 19.9775584 13.6160649z" stroke="#231F20" stroke-width=".283" fill="#231F20"/><path d="M13.3494026,26.5724675 C15.6247273,26.5724675 17.8655584,25.9711169 19.8291948,24.8349091 L20.2713766,24.5780779 L20.2713766,26.5724675 L26.3110649,26.5724675 L26.3110649,0.648311688 L20.2713766,0.648311688 L20.2713766,2.64228571 L19.8291948,2.38545455 C17.8638961,1.24924675 15.6226494,0.648311688 13.3494026,0.648311688 C6.19968831,0.648311688 0.386493506,6.46150649 0.386493506,13.6108052 C0.386077922,20.7563636 6.19968831,26.5724675 13.3494026,26.5724675 L13.3494026,26.5724675 Z M13.3494026,6.68550649 C17.166961,6.68550649 20.270961,9.78950649 20.270961,13.6070649 C20.270961,17.4283636 17.1665455,20.5327792 13.3494026,20.5327792 C9.53018182,20.5327792 6.42368831,17.4283636 6.42368831,13.6108052 C6.42368831,9.79158442 9.53018182,6.68550649 13.3494026,6.68550649 L13.3494026,6.68550649 Z" fill="#FFFFFF"/><g fill="#FFFFFF"><path d="M7.15345455 25.0672208C10.1922078 26.510961 13.801974 26.510961 16.8411429 25.0672208 18.0509091 24.4945455 19.1343377 23.7182338 20.0756364 22.7611429 22.1531429 20.6366753 23.3022338 17.8318961 23.3022338 14.8600519L23.3022338.232727273 17.2646234.232727273 17.2646234 14.8496623C17.2646234 17.7587532 14.9016104 20.1176104 12.0012468 20.1176104 9.10046753 20.1176104 6.73787013 17.7604156 6.73371429 14.8621299L6.72914286.232727273.692363636.232727273.696103896 14.8043636C.691948052 19.1921039 3.22992208 23.2012468 7.15345455 25.0672208L7.15345455 25.0672208zM.398961039 14.820987L.398961039 14.841987.500363636 14.820987.398961039 14.820987.398961039 14.820987z" transform="translate(104.312 .416)"/></g><path d="M77.664,10.2786494 C75.8304416,10.2786494 74.3480519,11.761039 74.3480519,13.5908571 C74.3480519,15.424 75.8308571,16.9068052 77.664,16.9068052 C79.492987,16.9068052 80.9757922,15.424 80.9757922,13.5908571 C80.9757922,11.7614545 79.492987,10.2786494 77.664,10.2786494 L77.664,10.2786494 Z" fill="#FBCD2D"/><path d="M77.664,20.2393766 C75.8304416,20.2393766 74.3480519,21.7221818 74.3480519,23.5536623 C74.3480519,25.3847273 75.8308571,26.8675325 77.664,26.8675325 C79.492987,26.8675325 80.9757922,25.3847273 80.9757922,23.5536623 C80.9757922,21.7225974 79.492987,20.2393766 77.664,20.2393766 L77.664,20.2393766 Z" fill="#77BC1F"/><path d="M77.664,0.33412987 C75.8304416,0.33412987 74.3480519,1.81693506 74.3480519,3.65007792 C74.3480519,5.47948052 75.8308571,6.9627013 77.664,6.9627013 C79.492987,6.9627013 80.9757922,5.4798961 80.9757922,3.65007792 C80.9757922,1.81735065 79.492987,0.33412987 77.664,0.33412987 L77.664,0.33412987 Z" fill="#FB3449"/><path d="M93.9025455 6.99096104C94.4768831 6.78732468 95.0678442 6.68550649 95.6583896 6.68550649L100.335377 6.68550649 100.335377.648311688 95.6583896.648311688C94.0168312.648311688 92.4363636.994493506 90.9527273 1.67272727L90.8147532 1.74587013C86.8999481 3.61392208 84.3698701 7.62057143 84.3698701 11.953039L84.3698701 26.5724675 90.4070649 26.5724675 90.4070649 11.6600519C90.5334026 9.52519481 91.9023377 7.69994805 93.9025455 6.99096104L93.9025455 6.99096104zM59.5923117 6.68550649C62.4968312 6.68550649 64.8594286 9.04851948 64.8594286 11.953039L64.8594286 26.5724675 70.897039 26.5724675 70.897039 11.953039C70.897039 7.61225974 68.3594805 3.60145455 64.4359481 1.73755844 61.3926234.291324675 57.7915844.291324675 54.7482597 1.73755844 53.5426494 2.30774026 52.4588052 3.08405195 51.5137662 4.0452987L51.305974 4.26098701 51.094026 4.0452987C50.1527273 3.08571429 49.0692987 2.30981818 47.8632727 1.73548052 44.8203636.293402597 41.2184935.291324675 38.1755844 1.73755844 34.2483117 3.60103896 31.7144935 7.61225974 31.7144935 11.953039L31.7144935 26.5724675 37.7516883 26.5724675 37.7516883 11.1912727 37.8007273 11.2398961C38.1552208 8.67574026 40.3715325 6.68550649 43.0192208 6.68550649 45.92 6.68550649 48.2825974 9.04436364 48.2867532 11.9468052L48.2867532 26.5724675 54.3243636 26.5724675 54.3243636 11.9613506C54.3243636 9.0481039 56.6873766 6.68550649 59.5923117 6.68550649L59.5923117 6.68550649z" fill="#FFFFFF"/></g></svg>